<svg width="3962" height="1567" xmlns="http://www.w3.org/2000/svg" xmlns:xlink="http://www.w3.org/1999/xlink" xml:space="preserve" overflow="hidden"><defs><clipPath id="clip0"><rect x="208" y="659" width="3962" height="1567"/></clipPath></defs><g clip-path="url(#clip0)" transform="translate(-208 -659)"><path d="M3525 1057 3701.2 1057" stroke="#000000" stroke-width="18.3333" stroke-miterlimit="8" fill="none" fill-rule="evenodd"/><path d="M871 755 2690.18 755" stroke="#0000FF" stroke-width="13.75" stroke-miterlimit="8" fill="none" fill-rule="evenodd"/><path d="M700 666 3550.37 666" stroke="#FF0000" stroke-width="13.75" stroke-miterlimit="8" fill="none" fill-rule="evenodd"/><path d="M2751 754 3479.98 754" stroke="#595959" stroke-width="13.75" stroke-miterlimit="8" fill="none" fill-rule="evenodd"/><path d="M2684 748 2684 994.85" stroke="#0000FF" stroke-width="13.75" stroke-miterlimit="8" fill="none" fill-rule="evenodd"/><path d="M2749 748 2749 994.85" stroke="#595959" stroke-width="13.75" stroke-miterlimit="8" fill="none" fill-rule="evenodd"/><path d="M0 0 0.000360892 213.338" stroke="#000000" stroke-width="36.6667" stroke-miterlimit="8" fill="none" fill-rule="evenodd" transform="matrix(-1 0 0 1 2716.5 1096.5)"/><rect x="0" y="0" width="456" height="299" stroke="#042433" stroke-width="13.75" stroke-miterlimit="8" fill="#FFFFFF" transform="matrix(-1 0 0 1 3124 1290)"/><text font-family="Segoe UI,Segoe UI_MSFontService,sans-serif" font-weight="700" font-size="73" transform="matrix(1 0 0 1 2826.9 1422)">A/D  </text><text font-family="Segoe UI,Segoe UI_MSFontService,sans-serif" font-weight="700" font-size="73" transform="matrix(1 0 0 1 2731.22 1510)">converter</text><path d="M45.5 0C70.629-1.15855e-14 91.0001 20.3711 91.0001 45.5001 91.0001 70.6291 70.629 91.0001 45.5 91.0001" stroke="#FF0000" stroke-width="13.75" stroke-miterlimit="8" fill="none" fill-rule="evenodd" transform="matrix(-1 0 0 1 3118 698)"/><path d="M0 0 0.000360892 252.025" stroke="#595959" stroke-width="13.75" stroke-miterlimit="8" fill="none" fill-rule="evenodd" transform="matrix(-1 0 0 1 3083 749)"/><path d="M0 0 0.000360892 207.778" stroke="#FF0000" stroke-width="13.75" stroke-miterlimit="8" fill="none" fill-rule="evenodd" transform="matrix(-1 0 0 1 3073 789)"/><rect x="0" y="0" width="799" height="298" stroke="#042433" stroke-width="13.75" stroke-miterlimit="8" fill="#FFFFFF" transform="matrix(-1 0 0 1 3623 1842)"/><text font-family="Segoe UI,Segoe UI_MSFontService,sans-serif" font-weight="700" font-size="73" transform="matrix(1 0 0 1 2947.08 2018)">Delay generator</text><path d="M3075.5 867.5 3075.5 1292.57" stroke="#000000" stroke-width="36.6667" stroke-miterlimit="8" fill="none" fill-rule="evenodd"/><path d="M0 0 0.000360892 248.116" stroke="#000000" stroke-width="36.6667" stroke-miterlimit="8" fill="none" fill-rule="evenodd" transform="matrix(-1 0 0 1 2900.5 1594.5)"/><rect x="0" y="0" width="457" height="299" stroke="#042433" stroke-width="13.75" stroke-miterlimit="8" fill="#FFFFFF" transform="matrix(-1 0 0 1 2499 1290)"/><text font-family="Segoe UI,Segoe UI_MSFontService,sans-serif" font-weight="700" font-size="73" transform="matrix(1 0 0 1 2224.75 1466)">PC</text><path d="M0 0 168.956 0.000360892" stroke="#000000" stroke-width="18.3333" stroke-miterlimit="8" fill="none" fill-rule="evenodd" transform="matrix(-1 0 0 1 2667.96 1439)"/><rect x="0" y="0" width="457" height="299" stroke="#042433" stroke-width="13.75" stroke-miterlimit="8" fill="#FFFFFF" transform="matrix(-1 0 0 1 3747 1288)"/><text font-family="Segoe UI,Segoe UI_MSFontService,sans-serif" font-weight="700" font-size="73" transform="matrix(1 0 0 1 3368.79 1421)">Function </text><text font-family="Segoe UI,Segoe UI_MSFontService,sans-serif" font-weight="700" font-size="73" transform="matrix(1 0 0 1 3348.73 1509)">generator</text><path d="M3483 747 3483 793.562" stroke="#595959" stroke-width="13.75" stroke-miterlimit="8" fill="none" fill-rule="evenodd"/><path d="M3551 659 3551 791.276" stroke="#FF0000" stroke-width="13.75" stroke-miterlimit="8" fill="none" fill-rule="evenodd"/><path d="M3519.5 907.5 3519.5 1292.22" stroke="#000000" stroke-width="36.6667" stroke-miterlimit="8" fill="none" fill-rule="evenodd"/><path d="M0 0 0.000360892 38.3611" stroke="#FF0000" stroke-width="13.75" stroke-miterlimit="8" fill="none" fill-rule="evenodd" transform="matrix(-1 0 0 1 3073 659)"/><path d="M0 0 0.000360892 248.116" stroke="#000000" stroke-width="36.6667" stroke-miterlimit="8" fill="none" fill-rule="evenodd" transform="matrix(-1 0 0 1 3519.5 1594.5)"/><path d="M0 0 421.115 0.000360892" stroke="#000000" stroke-width="36.6667" stroke-miterlimit="8" fill="none" fill-rule="evenodd" transform="matrix(-1 0 0 1 2824.62 1991.5)"/><rect x="0" y="0" width="395" height="255" stroke="#042433" stroke-width="13.75" stroke-miterlimit="8" fill="#D1D1D1" transform="matrix(-1 0 0 1 971 1478)"/><rect x="0" y="0" width="476" height="88" stroke="#042433" stroke-width="13.75" stroke-miterlimit="8" fill="#D1D1D1" transform="matrix(-1 0 0 1 1012 1391)"/><rect x="0" y="0" width="321" height="441" fill="#A6CAEC" transform="matrix(-1 0 0 1 931 942)"/><path d="M0 13.4999C-1.65506e-15 6.04411 5.82025-1.71872e-15 12.9999-3.43744e-15 20.1795-6.87487e-15 25.9998 6.04411 25.9998 13.4999 25.9998 20.9557 20.1795 26.9998 12.9999 26.9998 5.82025 26.9998-8.27529e-15 20.9557 0 13.4999Z" stroke="#000000" stroke-width="6.875" stroke-miterlimit="8" fill="#FFFFFF" fill-rule="evenodd" transform="matrix(-1 0 0 1 837.5 1209.5)"/><path d="M0 13.5001C-1.71872e-15 6.04419 6.04411-1.71874e-15 13.4999-3.43748e-15 20.9557-6.87496e-15 26.9998 6.04419 26.9998 13.5001 26.9998 20.956 20.9557 27.0002 13.4999 27.0002 6.04411 27.0002-8.59359e-15 20.956 0 13.5001Z" stroke="#000000" stroke-width="6.875" stroke-miterlimit="8" fill="#FFFFFF" fill-rule="evenodd" transform="matrix(-1 0 0 1 803.5 1226.5)"/><path d="M700 659 700 1259.93" stroke="#FF0000" stroke-width="13.75" stroke-miterlimit="8" fill="none" fill-rule="evenodd"/><rect x="0" y="0" width="320" height="517" stroke="#042433" stroke-width="13.75" stroke-miterlimit="8" fill="none" transform="matrix(-1 0 0 1 936 873)"/><path d="M0 0 0.000360892 234.005" stroke="#0000FF" stroke-width="13.75" stroke-miterlimit="8" fill="none" fill-rule="evenodd" transform="matrix(1 0 0 -1 873 986.005)"/><path d="M0 13.4999C-1.65508e-15 6.04411 5.82033-1.71872e-15 13.0001-3.43744e-15 20.1798-6.87487e-15 26.0001 6.04411 26.0001 13.4999 26.0001 20.9557 20.1798 26.9998 13.0001 26.9998 5.82033 26.9998-8.27541e-15 20.9557 0 13.4999Z" stroke="#000000" stroke-width="6.875" stroke-miterlimit="8" fill="#FFFFFF" fill-rule="evenodd" transform="matrix(-1 0 0 1 830.5 1121.5)"/><rect x="0" y="0" width="200" height="37.0001" fill="#E8E8E8" transform="matrix(-1 0 0 1 886 1264)"/><path d="M0 0 193.488 207.099" stroke="#000000" stroke-width="6.875" stroke-miterlimit="8" fill="none" fill-rule="evenodd" transform="matrix(-1 0 0 1 1054.99 1057.5)"/><text font-family="Segoe UI,Segoe UI_MSFontService,sans-serif" font-weight="700" font-size="64" transform="matrix(1 0 0 1 1057.32 1048)">Micro</text><text font-family="Segoe UI,Segoe UI_MSFontService,sans-serif" font-weight="700" font-size="64" transform="matrix(1 0 0 1 1232.63 1048)">-</text><text font-family="Segoe UI,Segoe UI_MSFontService,sans-serif" font-weight="700" font-size="64" transform="matrix(1 0 0 1 1258.41 1048)">patterned anode</text><rect x="1188.5" y="1233.5" width="118" height="87" stroke="#042433" stroke-width="6.875" stroke-miterlimit="8"/><rect x="1306" y="1122" width="345" height="298" stroke="#042433" stroke-width="13.75" stroke-miterlimit="8" fill="#D9D9D9"/><path d="M1.64063e-05-6.875 13.75-6.87497 13.75 6.87503-1.64063e-05 6.875ZM27.5-6.87493 41.25-6.8749 41.25 6.8751 27.5 6.87507ZM55-6.87487 68.75-6.87484 68.75 6.87516 55 6.87513ZM82.5-6.8748 96.25-6.87477 96.25 6.87523 82.5 6.8752ZM110-6.87474 116.856-6.87472 116.856 6.87528 110 6.87526ZM109.981-20.6247 151.231 0.000360892 109.981 20.6253Z" transform="matrix(-1 0 0 1 1149.23 1277)"/><text font-family="Segoe UI,Segoe UI_MSFontService,sans-serif" font-weight="700" font-size="62" transform="matrix(1 0 0 1 1116.64 1516)">High</text><text font-family="Segoe UI,Segoe UI_MSFontService,sans-serif" font-weight="700" font-size="62" transform="matrix(1 0 0 1 1257.58 1516)">-</text><text font-family="Segoe UI,Segoe UI_MSFontService,sans-serif" font-weight="700" font-size="62" transform="matrix(1 0 0 1 1282.79 1516)">speed camera</text><text font-family="Segoe UI,Segoe UI_MSFontService,sans-serif" font-weight="700" font-size="62" transform="matrix(1 0 0 1 690.892 1804)">Stage</text><text font-family="Segoe UI,Segoe UI_MSFontService,sans-serif" font-weight="700" font-size="62" transform="matrix(1 0 0 1 1072.17 886)">Cathode</text><path d="M0 0 184.136 90.7504" stroke="#000000" stroke-width="6.875" stroke-miterlimit="8" fill="none" fill-rule="evenodd" transform="matrix(-1 0 0 1 1055.64 895.5)"/><rect x="306" y="1118" width="72.0002" height="330" stroke="#042433" stroke-width="13.75" stroke-miterlimit="8" fill="#FFFFFF"/><path d="M320 1279.5C320 1224.55 329.85 1180 342 1180 354.15 1180 364 1224.55 364 1279.5 364 1334.45 354.15 1379 342 1379 329.85 1379 320 1334.45 320 1279.5Z" stroke="#000000" stroke-width="13.75" stroke-miterlimit="8" fill="#FFC000" fill-rule="evenodd"/><path d="M403 1262.25 439 1262.25 439 1244 475 1280.5 439 1317 439 1298.75 403 1298.75Z" fill="#FFC000" fill-rule="evenodd"/><path d="M403 1181.25 439 1181.25 439 1163 475 1199.5 439 1236 439 1217.75 403 1217.75Z" fill="#FFC000" fill-rule="evenodd"/><path d="M403 1343.25 439 1343.25 439 1325 475 1361.5 439 1398 439 1379.75 403 1379.75Z" fill="#FFC000" fill-rule="evenodd"/><text font-family="Segoe UI,Segoe UI_MSFontService,sans-serif" font-weight="700" font-size="62" transform="matrix(1 0 0 1 287.687 1086)">LED</text><path d="M0 0 0.000360892 118.324" stroke="#7F7F7F" stroke-width="22.9167" stroke-miterlimit="8" fill="none" fill-rule="evenodd" transform="matrix(-1 0 0 1 873.5 956.5)"/><path d="M0 0 150.962 0.127756" stroke="#000000" stroke-width="36.6667" stroke-miterlimit="8" fill="none" fill-rule="evenodd" transform="matrix(-1 0 0 1 1805.46 1277.5)"/><path d="M0 0 0.000360892 745.118" stroke="#000000" stroke-width="36.6667" stroke-miterlimit="8" fill="none" fill-rule="evenodd" transform="matrix(-1 0 0 1 1789.5 1264.5)"/><path d="M0 0 405.884 0.000360892" stroke="#000000" stroke-width="36.6667" stroke-miterlimit="8" fill="none" fill-rule="evenodd" transform="matrix(-1 0 0 1 2195.38 1991.5)"/><rect x="0" y="0" width="209" height="108" stroke="#042433" stroke-width="13.75" stroke-miterlimit="8" fill="#404040" transform="matrix(-1 0 0 1 2403 1937)"/><text fill="#FFFFFF" font-family="Segoe UI,Segoe UI_MSFontService,sans-serif" font-weight="400" font-size="62" transform="matrix(1 0 0 1 2263.23 2014)">(1)</text><path d="M708 1263 876.898 1263" stroke="#7F7F7F" stroke-width="13.75" stroke-miterlimit="8" fill="none" fill-rule="evenodd"/><path d="M1791.94 1712.5 1791.94 1819.49 1785.06 1819.49 1785.06 1712.5ZM1802.25 1814.91 1788.5 1842.41 1774.75 1814.91Z" fill="#FFFFFF"/><path d="M2555.5 1992.06 2645.32 1992.06 2645.32 1998.94 2555.5 1998.94ZM2640.74 1981.75 2668.24 1995.5 2640.74 2009.25Z" fill="#FFFFFF"/><path d="M3.4375-9.23178e-06 3.4378 111.463-3.4372 111.463-3.4375 9.23178e-06ZM13.7503 106.88 0.000360892 134.38-13.7497 106.88Z" fill="#FFFFFF" transform="matrix(1 0 0 -1 3519.5 1772.88)"/><path d="M3.4375-9.23178e-06 3.4378 111.463-3.4372 111.463-3.4375 9.23178e-06ZM13.7503 106.88 0.000360892 134.38-13.7497 106.88Z" fill="#FFFFFF" transform="matrix(1 0 0 -1 2899.5 1785.88)"/><path d="M2719.94 1121.5 2719.94 1232.96 2713.06 1232.96 2713.06 1121.5ZM2730.25 1228.38 2716.5 1255.88 2702.75 1228.38Z" fill="#FFFFFF"/><path d="M3078.94 1107.5 3078.94 1218.96 3072.06 1218.96 3072.06 1107.5ZM3089.25 1214.38 3075.5 1241.88 3061.75 1214.38Z" fill="#FFFFFF"/><path d="M3.4375-9.05678e-06 3.4378 114.06-3.4372 114.06-3.4375 9.05678e-06ZM13.7503 109.477 0.000360892 136.977-13.7497 109.477Z" fill="#FFFFFF" transform="matrix(1 0 0 -1 3519.5 1240.48)"/><rect x="0" y="0" width="209" height="108" stroke="#042433" stroke-width="13.75" stroke-miterlimit="8" fill="#404040" transform="matrix(-1 0 0 1 3623 799)"/><text fill="#FFFFFF" font-family="Segoe UI,Segoe UI_MSFontService,sans-serif" font-weight="400" font-size="62" transform="matrix(1 0 0 1 3483.08 876)">(3)</text><rect x="0" y="0" width="455" height="240" stroke="#042433" stroke-width="13.75" stroke-miterlimit="8" fill="#FFFFFF" transform="matrix(-1 0 0 1 4163 936)"/><text font-family="Segoe UI,Segoe UI_MSFontService,sans-serif" font-weight="700" font-size="64" transform="matrix(1 0 0 1 3748.08 1080)">Oscilloscope</text><rect x="1996.5" y="936.5" width="1265" height="751" stroke="#7F7F7F" stroke-width="6.875" stroke-linecap="square" stroke-miterlimit="8" stroke-dasharray="20.625 6.875" fill="none"/><text fill="#7F7F7F" font-family="Segoe UI,Segoe UI_MSFontService,sans-serif" font-weight="400" font-size="64" transform="matrix(1 0 0 1 2031.77 1022)">Measurement</text><path d="M45.5 0C70.629-1.15855e-14 91.0001 20.3711 91.0001 45.5 91.0001 70.629 70.629 91.0001 45.5 91.0001" stroke="#0000FF" stroke-width="13.75" stroke-miterlimit="8" fill="none" fill-rule="evenodd" transform="matrix(-6.12323e-17 -1 -1 6.12323e-17 2799 918)"/><path d="M0 0 0.000360892 103.937" stroke="#0000FF" stroke-width="13.75" stroke-miterlimit="8" fill="none" fill-rule="evenodd" transform="matrix(-6.12323e-17 -1 -1 6.12323e-17 2899.94 867)"/><path d="M2681 866 2706.98 866" stroke="#0000FF" stroke-width="13.75" stroke-miterlimit="8" fill="none" fill-rule="evenodd"/><path d="M2907 752 2907 871.992" stroke="#595959" stroke-width="13.75" stroke-miterlimit="8" fill="none" fill-rule="evenodd"/><path d="M2900.5 867.5 2900.5 1292.57" stroke="#000000" stroke-width="36.6667" stroke-miterlimit="8" fill="none" fill-rule="evenodd"/><path d="M2903.94 1104.5 2903.94 1215.96 2897.06 1215.96 2897.06 1104.5ZM2914.25 1211.38 2900.5 1238.88 2886.75 1211.38Z" fill="#FFFFFF"/><rect x="0" y="0" width="208" height="108" stroke="#042433" stroke-width="13.75" stroke-miterlimit="8" fill="#404040" transform="matrix(-1 0 0 1 2824 988)"/><text fill="#FFFFFF" font-family="Segoe UI,Segoe UI_MSFontService,sans-serif" font-weight="400" font-size="62" transform="matrix(1 0 0 1 2684.35 1065)">(2)</text><text fill="#7F7F7F" font-family="Segoe UI,Segoe UI_MSFontService,sans-serif" font-weight="400" font-size="64" transform="matrix(1 0 0 1 3198.76 824)">GND</text><text font-family="Segoe UI,Segoe UI_MSFontService,sans-serif" font-weight="400" font-size="64" transform="matrix(1 0 0 1 251.198 2013)">(1)</text><text font-family="Segoe UI,Segoe UI_MSFontService,sans-serif" font-weight="400" font-size="64" transform="matrix(1 0 0 1 374.948 2013)">Photo</text><text font-family="Segoe UI,Segoe UI_MSFontService,sans-serif" font-weight="400" font-size="64" transform="matrix(1 0 0 1 544.027 2013)">-</text><text font-family="Segoe UI,Segoe UI_MSFontService,sans-serif" font-weight="400" font-size="64" transform="matrix(1 0 0 1 569.808 2013)">coupler</text><text font-family="Segoe UI,Segoe UI_MSFontService,sans-serif" font-weight="400" font-size="64" transform="matrix(1 0 0 1 251.198 2090)">(2)</text><text font-family="Segoe UI,Segoe UI_MSFontService,sans-serif" font-weight="400" font-size="64" transform="matrix(1 0 0 1 374.948 2090)">Non</text><text font-family="Segoe UI,Segoe UI_MSFontService,sans-serif" font-weight="400" font-size="64" transform="matrix(1 0 0 1 496.979 2090)">-</text><text font-family="Segoe UI,Segoe UI_MSFontService,sans-serif" font-weight="400" font-size="64" transform="matrix(1 0 0 1 522.761 2090)">inverting amplifier (for current sensing)</text><text font-family="Segoe UI,Segoe UI_MSFontService,sans-serif" font-weight="400" font-size="64" transform="matrix(1 0 0 1 251.198 2167)">(3)</text><text font-family="Segoe UI,Segoe UI_MSFontService,sans-serif" font-weight="400" font-size="64" transform="matrix(1 0 0 1 374.948 2167)">Power amplifier</text></g></svg>